<svg width="403" height="229" viewBox="0 0 403 229" fill="none" xmlns="http://www.w3.org/2000/svg">
<g clip-path="url(#clip0_212_17957)">
<rect width="402.9" height="1148.26" rx="15" fill="#E6EAFD"/>
<g clip-path="url(#clip1_212_17957)">
<rect width="338.391" height="840.594" transform="translate(32.2544 -194)" fill="#FAFAFA"/>
<path d="M299.45 22.4369C299.45 76.8044 255.376 120.878 201.009 120.878C146.641 120.878 102.568 76.8044 102.568 22.4369C102.568 -31.9306 146.641 -76.0042 201.009 -76.0042C255.376 -76.0042 299.45 -31.9306 299.45 22.4369ZM110.443 22.4369C110.443 72.455 150.991 113.003 201.009 113.003C251.027 113.003 291.575 72.455 291.575 22.4369C291.575 -27.5812 251.027 -68.1289 201.009 -68.1289C150.991 -68.1289 110.443 -27.5812 110.443 22.4369Z" fill="#E6EAFD"/>
<path d="M201.009 -76.0042C213.936 -76.0042 226.737 -73.4579 238.681 -68.5108C250.624 -63.5636 261.476 -56.3125 270.617 -47.1714C279.758 -38.0303 287.009 -27.1783 291.957 -15.2349C296.904 -3.29144 299.45 9.50944 299.45 22.4369C299.45 35.3644 296.904 48.1652 291.957 60.1087C287.009 72.0521 279.758 82.9041 270.617 92.0452C261.476 101.186 250.624 108.437 238.681 113.385C226.737 118.332 213.936 120.878 201.009 120.878V113.003C212.902 113.003 224.679 110.66 235.667 106.109C246.655 101.557 256.639 94.8864 265.049 86.4766C273.458 78.0668 280.129 68.0829 284.681 57.0949C289.232 46.107 291.575 34.3302 291.575 22.4369C291.575 10.5436 289.232 -1.23317 284.681 -12.2211C280.129 -23.2091 273.458 -33.193 265.049 -41.6028C256.639 -50.0126 246.655 -56.6836 235.667 -61.235C224.679 -65.7863 212.902 -68.1289 201.009 -68.1289V-76.0042Z" fill="#0329E9"/>
<mask id="path-4-inside-1_212_17957" fill="white">
<path d="M279.762 22.4369C279.762 65.9309 244.503 101.19 201.009 101.19C157.515 101.19 122.256 65.9309 122.256 22.4369C122.256 -21.0571 157.515 -56.3159 201.009 -56.3159C244.503 -56.3159 279.762 -21.0571 279.762 22.4369ZM123.831 22.4369C123.831 65.061 158.385 99.6147 201.009 99.6147C243.633 99.6147 278.187 65.061 278.187 22.4369C278.187 -20.1872 243.633 -54.7409 201.009 -54.7409C158.385 -54.7409 123.831 -20.1872 123.831 22.4369Z"/>
</mask>
<path d="M279.762 22.4369C279.762 65.9309 244.503 101.19 201.009 101.19C157.515 101.19 122.256 65.9309 122.256 22.4369C122.256 -21.0571 157.515 -56.3159 201.009 -56.3159C244.503 -56.3159 279.762 -21.0571 279.762 22.4369ZM123.831 22.4369C123.831 65.061 158.385 99.6147 201.009 99.6147C243.633 99.6147 278.187 65.061 278.187 22.4369C278.187 -20.1872 243.633 -54.7409 201.009 -54.7409C158.385 -54.7409 123.831 -20.1872 123.831 22.4369Z" stroke="#BABABA" stroke-width="1.53814" stroke-dasharray="3.08 6.15" mask="url(#path-4-inside-1_212_17957)"/>
<path d="M175.912 17.2161V16.0817C176.822 15.3639 177.687 14.6397 178.507 13.9091C179.34 13.1784 180.077 12.4542 180.718 11.7364C181.359 11.0058 181.859 10.2944 182.218 9.60226C182.59 8.9101 182.776 8.24357 182.776 7.60268C182.776 7.12842 182.692 6.69261 182.526 6.29526C182.359 5.88509 182.09 5.55182 181.718 5.29547C181.359 5.03911 180.872 4.91093 180.257 4.91093C179.654 4.91093 179.155 5.04552 178.757 5.31469C178.36 5.57105 178.059 5.91713 177.854 6.35294C177.661 6.77593 177.565 7.24378 177.565 7.75649H176.008C176.021 6.87206 176.206 6.11581 176.565 5.48774C176.937 4.84684 177.443 4.35976 178.084 4.0265C178.725 3.69324 179.456 3.52661 180.276 3.52661C181.084 3.52661 181.795 3.68042 182.41 3.98805C183.026 4.28286 183.506 4.72507 183.852 5.31469C184.211 5.90432 184.391 6.64775 184.391 7.545C184.391 8.17307 184.256 8.80115 183.987 9.42922C183.731 10.0573 183.384 10.6726 182.949 11.275C182.513 11.8646 182.026 12.435 181.487 12.9862C180.962 13.5373 180.417 14.0565 179.853 14.5435C179.302 15.0306 178.783 15.4728 178.296 15.8702H184.852V17.2161H175.912ZM191.546 17.4468C190.623 17.4468 189.822 17.2802 189.143 16.9469C188.476 16.6136 187.945 16.1586 187.547 15.5818C187.163 15.005 186.919 14.3577 186.817 13.6399H188.393C188.547 14.3577 188.899 14.9409 189.451 15.3895C190.002 15.8381 190.707 16.0625 191.566 16.0625C192.206 16.0625 192.751 15.9151 193.2 15.6202C193.661 15.3254 194.014 14.9217 194.257 14.409C194.514 13.8962 194.642 13.3258 194.642 12.6978C194.642 12.0441 194.514 11.4673 194.257 10.9674C194.001 10.4675 193.648 10.0829 193.2 9.81376C192.751 9.53177 192.226 9.39077 191.623 9.39077C190.893 9.39077 190.271 9.55099 189.758 9.87144C189.246 10.1919 188.861 10.6021 188.605 11.102H187.047L188.162 3.75733H195.276V5.16088H189.412L188.662 9.29464C188.983 8.92292 189.406 8.6217 189.931 8.39098C190.47 8.14744 191.091 8.02567 191.796 8.02567C192.463 8.02567 193.065 8.14103 193.604 8.37175C194.142 8.60247 194.603 8.92933 194.988 9.35232C195.372 9.7753 195.667 10.2688 195.872 10.8328C196.09 11.3968 196.199 12.012 196.199 12.6785C196.199 13.3323 196.09 13.9475 195.872 14.5243C195.667 15.0883 195.366 15.5946 194.969 16.0432C194.571 16.479 194.084 16.8251 193.507 17.0815C192.931 17.325 192.277 17.4468 191.546 17.4468ZM203.704 17.4468C202.525 17.4468 201.506 17.1584 200.647 16.5816C199.801 15.992 199.154 15.178 198.705 14.1398C198.257 13.0887 198.033 11.871 198.033 10.4867C198.033 9.10237 198.257 7.89108 198.705 6.85284C199.154 5.80177 199.801 4.98784 200.647 4.41104C201.506 3.82142 202.525 3.52661 203.704 3.52661C204.884 3.52661 205.89 3.82142 206.723 4.41104C207.569 4.98784 208.216 5.80177 208.665 6.85284C209.114 7.89108 209.338 9.10237 209.338 10.4867C209.338 11.871 209.114 13.0887 208.665 14.1398C208.216 15.178 207.569 15.992 206.723 16.5816C205.89 17.1584 204.884 17.4468 203.704 17.4468ZM203.685 16.024C204.454 16.024 205.14 15.8061 205.742 15.3703C206.345 14.9217 206.819 14.2872 207.165 13.4668C207.511 12.6337 207.684 11.6403 207.684 10.4867C207.684 9.33309 207.511 8.34611 207.165 7.52577C206.819 6.69261 206.345 6.05813 205.742 5.62232C205.14 5.18652 204.454 4.96861 203.685 4.96861C202.916 4.96861 202.224 5.18652 201.609 5.62232C201.006 6.05813 200.532 6.69261 200.186 7.52577C199.853 8.34611 199.686 9.33309 199.686 10.4867C199.686 11.6403 199.853 12.6337 200.186 13.4668C200.532 14.2872 201.006 14.9217 201.609 15.3703C202.224 15.8061 202.916 16.024 203.685 16.024Z" fill="#212121"/>
<path d="M213.219 17.2661C213.052 17.2661 212.912 17.2127 212.799 17.1061C212.692 16.9928 212.639 16.8561 212.639 16.6962C212.639 16.5362 212.692 16.4029 212.799 16.2963C212.912 16.1829 213.052 16.1263 213.219 16.1263C213.386 16.1263 213.522 16.1829 213.629 16.2963C213.736 16.4029 213.789 16.5362 213.789 16.6962C213.789 16.8561 213.736 16.9928 213.629 17.1061C213.522 17.2127 213.386 17.2661 213.219 17.2661ZM217.13 17.336C216.517 17.336 215.987 17.1861 215.541 16.8861C215.101 16.5795 214.764 16.1563 214.531 15.6164C214.298 15.0698 214.181 14.4366 214.181 13.7168C214.181 12.9969 214.298 12.3671 214.531 11.8272C214.764 11.2806 215.101 10.8574 215.541 10.5574C215.987 10.2508 216.517 10.0975 217.13 10.0975C217.743 10.0975 218.267 10.2508 218.7 10.5574C219.14 10.8574 219.476 11.2806 219.71 11.8272C219.943 12.3671 220.06 12.9969 220.06 13.7168C220.06 14.4366 219.943 15.0698 219.71 15.6164C219.476 16.1563 219.14 16.5795 218.7 16.8861C218.267 17.1861 217.743 17.336 217.13 17.336ZM217.12 16.5962C217.52 16.5962 217.877 16.4829 218.19 16.2563C218.503 16.023 218.75 15.693 218.93 15.2665C219.11 14.8332 219.2 14.3167 219.2 13.7168C219.2 13.1169 219.11 12.6037 218.93 12.1771C218.75 11.7439 218.503 11.4139 218.19 11.1873C217.877 10.9607 217.52 10.8474 217.12 10.8474C216.72 10.8474 216.36 10.9607 216.04 11.1873C215.727 11.4139 215.481 11.7439 215.301 12.1771C215.127 12.6037 215.041 13.1169 215.041 13.7168C215.041 14.3167 215.127 14.8332 215.301 15.2665C215.481 15.693 215.727 16.023 216.04 16.2563C216.36 16.4829 216.72 16.5962 217.12 16.5962ZM223.865 17.336C223.252 17.336 222.722 17.1861 222.275 16.8861C221.835 16.5795 221.499 16.1563 221.265 15.6164C221.032 15.0698 220.915 14.4366 220.915 13.7168C220.915 12.9969 221.032 12.3671 221.265 11.8272C221.499 11.2806 221.835 10.8574 222.275 10.5574C222.722 10.2508 223.252 10.0975 223.865 10.0975C224.478 10.0975 225.001 10.2508 225.434 10.5574C225.874 10.8574 226.211 11.2806 226.444 11.8272C226.678 12.3671 226.794 12.9969 226.794 13.7168C226.794 14.4366 226.678 15.0698 226.444 15.6164C226.211 16.1563 225.874 16.5795 225.434 16.8861C225.001 17.1861 224.478 17.336 223.865 17.336ZM223.855 16.5962C224.255 16.5962 224.611 16.4829 224.925 16.2563C225.238 16.023 225.484 15.693 225.664 15.2665C225.844 14.8332 225.934 14.3167 225.934 13.7168C225.934 13.1169 225.844 12.6037 225.664 12.1771C225.484 11.7439 225.238 11.4139 224.925 11.1873C224.611 10.9607 224.255 10.8474 223.855 10.8474C223.455 10.8474 223.095 10.9607 222.775 11.1873C222.462 11.4139 222.215 11.7439 222.035 12.1771C221.862 12.6037 221.775 13.1169 221.775 13.7168C221.775 14.3167 221.862 14.8332 222.035 15.2665C222.215 15.693 222.462 16.023 222.775 16.2563C223.095 16.4829 223.455 16.5962 223.855 16.5962Z" fill="#212121"/>
<path d="M167.547 30.9978C167.547 31.33 167.59 31.6592 167.676 31.9853C167.763 32.3052 167.898 32.5944 168.083 32.8528C168.267 33.1112 168.504 33.3204 168.793 33.4803C169.082 33.6342 169.427 33.7111 169.827 33.7111C170.227 33.7111 170.571 33.6342 170.86 33.4803C171.15 33.3204 171.386 33.1112 171.571 32.8528C171.756 32.5944 171.891 32.3052 171.977 31.9853C172.063 31.6592 172.106 31.33 172.106 30.9978C172.106 30.6655 172.063 30.3395 171.977 30.0195C171.891 29.6934 171.756 29.4012 171.571 29.1428C171.386 28.8844 171.15 28.6783 170.86 28.5244C170.571 28.3645 170.227 28.2845 169.827 28.2845C169.427 28.2845 169.082 28.3645 168.793 28.5244C168.504 28.6783 168.267 28.8844 168.083 29.1428C167.898 29.4012 167.763 29.6934 167.676 30.0195C167.59 30.3395 167.547 30.6655 167.547 30.9978ZM166.671 30.9978C166.671 30.5486 166.735 30.118 166.864 29.7057C167 29.2874 167.2 28.9182 167.464 28.5983C167.729 28.2783 168.058 28.023 168.452 27.8323C168.845 27.6416 169.304 27.5462 169.827 27.5462C170.35 27.5462 170.808 27.6416 171.202 27.8323C171.596 28.023 171.925 28.2783 172.189 28.5983C172.454 28.9182 172.651 29.2874 172.78 29.7057C172.915 30.118 172.983 30.5486 172.983 30.9978C172.983 31.4469 172.915 31.8807 172.78 32.299C172.651 32.7113 172.454 33.0773 172.189 33.3973C171.925 33.7172 171.596 33.9725 171.202 34.1633C170.808 34.3479 170.35 34.4401 169.827 34.4401C169.304 34.4401 168.845 34.3479 168.452 34.1633C168.058 33.9725 167.729 33.7172 167.464 33.3973C167.2 33.0773 167 32.7113 166.864 32.299C166.735 31.8807 166.671 31.4469 166.671 30.9978ZM173.959 27.7031H178.287V28.4414H174.836V30.5363H177.863V31.2746H174.836V34.2925H173.959V27.7031ZM185.26 28.5521H182.621L182.27 30.4348L182.289 30.4533C182.43 30.2933 182.612 30.1764 182.833 30.1026C183.061 30.0226 183.285 29.9826 183.507 29.9826C183.796 29.9826 184.07 30.0288 184.328 30.121C184.587 30.2133 184.811 30.3548 185.002 30.5456C185.193 30.7301 185.343 30.9639 185.454 31.247C185.565 31.5238 185.62 31.8499 185.62 32.2252C185.62 32.5021 185.571 32.7728 185.472 33.0374C185.38 33.2958 185.239 33.5265 185.048 33.7295C184.857 33.9326 184.617 34.0956 184.328 34.2186C184.045 34.3355 183.713 34.394 183.331 34.394C183.048 34.394 182.781 34.354 182.528 34.274C182.282 34.1879 182.064 34.0679 181.873 33.9141C181.683 33.7541 181.532 33.5572 181.421 33.3235C181.31 33.0897 181.252 32.8251 181.246 32.5298H182.03C182.042 32.6959 182.082 32.8528 182.15 33.0004C182.224 33.142 182.319 33.2681 182.436 33.3788C182.559 33.4834 182.701 33.5665 182.861 33.628C183.027 33.6834 183.208 33.7111 183.405 33.7111C183.59 33.7111 183.765 33.6803 183.931 33.6188C184.104 33.5511 184.251 33.4527 184.374 33.3235C184.503 33.1942 184.605 33.0343 184.679 32.8436C184.753 32.6467 184.79 32.419 184.79 32.1606C184.79 31.9453 184.753 31.7484 184.679 31.57C184.611 31.3854 184.513 31.2285 184.383 31.0993C184.254 30.9639 184.097 30.8593 183.913 30.7855C183.734 30.7117 183.534 30.6748 183.313 30.6748C183.055 30.6748 182.824 30.7332 182.621 30.8501C182.424 30.9609 182.249 31.1085 182.095 31.2931L181.421 31.2562L182.03 27.86H185.26V28.5521ZM187.177 31.0716C187.177 31.3177 187.183 31.5946 187.195 31.9022C187.214 32.2037 187.263 32.4898 187.343 32.7605C187.429 33.0251 187.564 33.2496 187.749 33.4342C187.934 33.6188 188.192 33.7111 188.524 33.7111C188.856 33.7111 189.115 33.6188 189.299 33.4342C189.484 33.2496 189.616 33.0251 189.696 32.7605C189.782 32.4898 189.832 32.2037 189.844 31.9022C189.862 31.5946 189.872 31.3177 189.872 31.0716C189.872 30.9116 189.868 30.7363 189.862 30.5456C189.862 30.3487 189.847 30.1549 189.816 29.9641C189.792 29.7673 189.752 29.5765 189.696 29.392C189.647 29.2074 189.57 29.0474 189.465 28.9121C189.367 28.7706 189.241 28.6567 189.087 28.5706C188.933 28.4845 188.746 28.4414 188.524 28.4414C188.303 28.4414 188.115 28.4845 187.961 28.5706C187.807 28.6567 187.678 28.7706 187.574 28.9121C187.475 29.0474 187.398 29.2074 187.343 29.392C187.294 29.5765 187.254 29.7673 187.223 29.9641C187.198 30.1549 187.183 30.3487 187.177 30.5456C187.177 30.7363 187.177 30.9116 187.177 31.0716ZM186.346 31.0808C186.346 30.8409 186.352 30.5917 186.365 30.3333C186.377 30.0749 186.408 29.8226 186.457 29.5765C186.506 29.3304 186.577 29.0966 186.669 28.8751C186.761 28.6537 186.888 28.4598 187.048 28.2937C187.207 28.1276 187.407 27.9953 187.647 27.8969C187.894 27.7984 188.186 27.7492 188.524 27.7492C188.863 27.7492 189.152 27.7984 189.392 27.8969C189.638 27.9953 189.841 28.1276 190.001 28.2937C190.161 28.4598 190.287 28.6537 190.379 28.8751C190.471 29.0966 190.542 29.3304 190.591 29.5765C190.641 29.8226 190.671 30.0749 190.684 30.3333C190.696 30.5917 190.702 30.8409 190.702 31.0808C190.702 31.3208 190.696 31.57 190.684 31.8284C190.671 32.0868 190.641 32.339 190.591 32.5851C190.542 32.8312 190.471 33.065 190.379 33.2865C190.287 33.5019 190.161 33.6926 190.001 33.8587C189.841 34.0248 189.641 34.1571 189.401 34.2556C189.161 34.3479 188.869 34.394 188.524 34.394C188.186 34.394 187.894 34.3479 187.647 34.2556C187.407 34.1571 187.207 34.0248 187.048 33.8587C186.888 33.6926 186.761 33.5019 186.669 33.2865C186.577 33.065 186.506 32.8312 186.457 32.5851C186.408 32.339 186.377 32.0868 186.365 31.8284C186.352 31.57 186.346 31.3208 186.346 31.0808ZM192.213 31.0716C192.213 31.3177 192.219 31.5946 192.231 31.9022C192.25 32.2037 192.299 32.4898 192.379 32.7605C192.465 33.0251 192.6 33.2496 192.785 33.4342C192.969 33.6188 193.228 33.7111 193.56 33.7111C193.892 33.7111 194.151 33.6188 194.335 33.4342C194.52 33.2496 194.652 33.0251 194.732 32.7605C194.818 32.4898 194.867 32.2037 194.88 31.9022C194.898 31.5946 194.907 31.3177 194.907 31.0716C194.907 30.9116 194.904 30.7363 194.898 30.5456C194.898 30.3487 194.883 30.1549 194.852 29.9641C194.827 29.7673 194.787 29.5765 194.732 29.392C194.683 29.2074 194.606 29.0474 194.501 28.9121C194.403 28.7706 194.277 28.6567 194.123 28.5706C193.969 28.4845 193.781 28.4414 193.56 28.4414C193.339 28.4414 193.151 28.4845 192.997 28.5706C192.843 28.6567 192.714 28.7706 192.609 28.9121C192.511 29.0474 192.434 29.2074 192.379 29.392C192.329 29.5765 192.289 29.7673 192.259 29.9641C192.234 30.1549 192.219 30.3487 192.213 30.5456C192.213 30.7363 192.213 30.9116 192.213 31.0716ZM191.382 31.0808C191.382 30.8409 191.388 30.5917 191.4 30.3333C191.413 30.0749 191.444 29.8226 191.493 29.5765C191.542 29.3304 191.613 29.0966 191.705 28.8751C191.797 28.6537 191.923 28.4598 192.083 28.2937C192.243 28.1276 192.443 27.9953 192.683 27.8969C192.929 27.7984 193.222 27.7492 193.56 27.7492C193.898 27.7492 194.188 27.7984 194.428 27.8969C194.674 27.9953 194.877 28.1276 195.037 28.2937C195.197 28.4598 195.323 28.6537 195.415 28.8751C195.507 29.0966 195.578 29.3304 195.627 29.5765C195.676 29.8226 195.707 30.0749 195.72 30.3333C195.732 30.5917 195.738 30.8409 195.738 31.0808C195.738 31.3208 195.732 31.57 195.72 31.8284C195.707 32.0868 195.676 32.339 195.627 32.5851C195.578 32.8312 195.507 33.065 195.415 33.2865C195.323 33.5019 195.197 33.6926 195.037 33.8587C194.877 34.0248 194.677 34.1571 194.437 34.2556C194.197 34.3479 193.905 34.394 193.56 34.394C193.222 34.394 192.929 34.3479 192.683 34.2556C192.443 34.1571 192.243 34.0248 192.083 33.8587C191.923 33.6926 191.797 33.5019 191.705 33.2865C191.613 33.065 191.542 32.8312 191.493 32.5851C191.444 32.339 191.413 32.0868 191.4 31.8284C191.388 31.57 191.382 31.3208 191.382 31.0808ZM196.796 33.2681H197.821V34.2925H196.796V33.2681ZM199.725 31.0716C199.725 31.3177 199.731 31.5946 199.743 31.9022C199.762 32.2037 199.811 32.4898 199.891 32.7605C199.977 33.0251 200.112 33.2496 200.297 33.4342C200.481 33.6188 200.74 33.7111 201.072 33.7111C201.404 33.7111 201.663 33.6188 201.847 33.4342C202.032 33.2496 202.164 33.0251 202.244 32.7605C202.33 32.4898 202.38 32.2037 202.392 31.9022C202.41 31.5946 202.42 31.3177 202.42 31.0716C202.42 30.9116 202.416 30.7363 202.41 30.5456C202.41 30.3487 202.395 30.1549 202.364 29.9641C202.34 29.7673 202.3 29.5765 202.244 29.392C202.195 29.2074 202.118 29.0474 202.013 28.9121C201.915 28.7706 201.789 28.6567 201.635 28.5706C201.481 28.4845 201.294 28.4414 201.072 28.4414C200.851 28.4414 200.663 28.4845 200.509 28.5706C200.355 28.6567 200.226 28.7706 200.122 28.9121C200.023 29.0474 199.946 29.2074 199.891 29.392C199.842 29.5765 199.802 29.7673 199.771 29.9641C199.746 30.1549 199.731 30.3487 199.725 30.5456C199.725 30.7363 199.725 30.9116 199.725 31.0716ZM198.894 31.0808C198.894 30.8409 198.9 30.5917 198.913 30.3333C198.925 30.0749 198.956 29.8226 199.005 29.5765C199.054 29.3304 199.125 29.0966 199.217 28.8751C199.309 28.6537 199.436 28.4598 199.596 28.2937C199.755 28.1276 199.955 27.9953 200.195 27.8969C200.442 27.7984 200.734 27.7492 201.072 27.7492C201.411 27.7492 201.7 27.7984 201.94 27.8969C202.186 27.9953 202.389 28.1276 202.549 28.2937C202.709 28.4598 202.835 28.6537 202.927 28.8751C203.019 29.0966 203.09 29.3304 203.139 29.5765C203.189 29.8226 203.219 30.0749 203.232 30.3333C203.244 30.5917 203.25 30.8409 203.25 31.0808C203.25 31.3208 203.244 31.57 203.232 31.8284C203.219 32.0868 203.189 32.339 203.139 32.5851C203.09 32.8312 203.019 33.065 202.927 33.2865C202.835 33.5019 202.709 33.6926 202.549 33.8587C202.389 34.0248 202.189 34.1571 201.949 34.2556C201.709 34.3479 201.417 34.394 201.072 34.394C200.734 34.394 200.442 34.3479 200.195 34.2556C199.955 34.1571 199.755 34.0248 199.596 33.8587C199.436 33.6926 199.309 33.5019 199.217 33.2865C199.125 33.065 199.054 32.8312 199.005 32.5851C198.956 32.339 198.925 32.0868 198.913 31.8284C198.9 31.57 198.894 31.3208 198.894 31.0808ZM204.761 31.0716C204.761 31.3177 204.767 31.5946 204.779 31.9022C204.797 32.2037 204.847 32.4898 204.927 32.7605C205.013 33.0251 205.148 33.2496 205.333 33.4342C205.517 33.6188 205.776 33.7111 206.108 33.7111C206.44 33.7111 206.699 33.6188 206.883 33.4342C207.068 33.2496 207.2 33.0251 207.28 32.7605C207.366 32.4898 207.415 32.2037 207.428 31.9022C207.446 31.5946 207.455 31.3177 207.455 31.0716C207.455 30.9116 207.452 30.7363 207.446 30.5456C207.446 30.3487 207.431 30.1549 207.4 29.9641C207.375 29.7673 207.335 29.5765 207.28 29.392C207.231 29.2074 207.154 29.0474 207.049 28.9121C206.951 28.7706 206.825 28.6567 206.671 28.5706C206.517 28.4845 206.329 28.4414 206.108 28.4414C205.886 28.4414 205.699 28.4845 205.545 28.5706C205.391 28.6567 205.262 28.7706 205.157 28.9121C205.059 29.0474 204.982 29.2074 204.927 29.392C204.877 29.5765 204.837 29.7673 204.807 29.9641C204.782 30.1549 204.767 30.3487 204.761 30.5456C204.761 30.7363 204.761 30.9116 204.761 31.0716ZM203.93 31.0808C203.93 30.8409 203.936 30.5917 203.948 30.3333C203.961 30.0749 203.992 29.8226 204.041 29.5765C204.09 29.3304 204.161 29.0966 204.253 28.8751C204.345 28.6537 204.471 28.4598 204.631 28.2937C204.791 28.1276 204.991 27.9953 205.231 27.8969C205.477 27.7984 205.77 27.7492 206.108 27.7492C206.446 27.7492 206.736 27.7984 206.976 27.8969C207.222 27.9953 207.425 28.1276 207.585 28.2937C207.745 28.4598 207.871 28.6537 207.963 28.8751C208.055 29.0966 208.126 29.3304 208.175 29.5765C208.224 29.8226 208.255 30.0749 208.268 30.3333C208.28 30.5917 208.286 30.8409 208.286 31.0808C208.286 31.3208 208.28 31.57 208.268 31.8284C208.255 32.0868 208.224 32.339 208.175 32.5851C208.126 32.8312 208.055 33.065 207.963 33.2865C207.871 33.5019 207.745 33.6926 207.585 33.8587C207.425 34.0248 207.225 34.1571 206.985 34.2556C206.745 34.3479 206.453 34.394 206.108 34.394C205.77 34.394 205.477 34.3479 205.231 34.2556C204.991 34.1571 204.791 34.0248 204.631 33.8587C204.471 33.6926 204.345 33.5019 204.253 33.2865C204.161 33.065 204.09 32.8312 204.041 32.5851C203.992 32.339 203.961 32.0868 203.948 31.8284C203.936 31.57 203.93 31.3208 203.93 31.0808ZM217.035 31.9114C217.035 32.7543 216.81 33.3881 216.361 33.8126C215.912 34.231 215.272 34.4401 214.441 34.4401C213.592 34.4401 212.928 34.2402 212.448 33.8403C211.974 33.4342 211.737 32.7913 211.737 31.9114V27.7031H212.614V31.9114C212.614 32.5021 212.771 32.9512 213.085 33.2588C213.399 33.5603 213.851 33.7111 214.441 33.7111C215.001 33.7111 215.426 33.5603 215.715 33.2588C216.01 32.9512 216.158 32.5021 216.158 31.9114V27.7031H217.035V31.9114ZM222.154 29.6319C222.105 29.1582 221.932 28.8167 221.637 28.6075C221.348 28.3922 220.976 28.2845 220.52 28.2845C220.336 28.2845 220.154 28.303 219.976 28.3399C219.797 28.3768 219.637 28.4383 219.496 28.5244C219.361 28.6106 219.25 28.7275 219.164 28.8751C219.084 29.0167 219.044 29.1951 219.044 29.4104C219.044 29.6135 219.102 29.7796 219.219 29.9088C219.342 30.0318 219.502 30.1333 219.699 30.2133C219.902 30.2933 220.13 30.361 220.382 30.4164C220.634 30.4656 220.89 30.521 221.148 30.5825C221.412 30.644 221.671 30.7178 221.923 30.804C222.175 30.884 222.4 30.9947 222.597 31.1362C222.8 31.2777 222.96 31.4561 223.077 31.6715C223.2 31.8868 223.261 32.1575 223.261 32.4836C223.261 32.8343 223.181 33.1358 223.021 33.3881C222.868 33.6342 222.668 33.8372 222.421 33.9972C222.175 34.151 221.899 34.2617 221.591 34.3294C221.289 34.4032 220.988 34.4401 220.686 34.4401C220.317 34.4401 219.967 34.394 219.634 34.3017C219.308 34.2094 219.019 34.071 218.767 33.8864C218.521 33.6957 218.324 33.4557 218.176 33.1666C218.035 32.8712 217.964 32.5236 217.964 32.1237H218.795C218.795 32.4006 218.847 32.6405 218.951 32.8436C219.062 33.0404 219.204 33.2035 219.376 33.3327C219.554 33.4619 219.761 33.5572 219.994 33.6188C220.228 33.6803 220.468 33.7111 220.714 33.7111C220.911 33.7111 221.108 33.6926 221.305 33.6557C221.508 33.6188 221.689 33.5572 221.849 33.4711C222.009 33.3788 222.138 33.2558 222.237 33.102C222.335 32.9481 222.385 32.7513 222.385 32.5113C222.385 32.2837 222.323 32.0991 222.2 31.9576C222.083 31.8161 221.923 31.7022 221.72 31.6161C221.523 31.5238 221.299 31.45 221.046 31.3946C220.794 31.3392 220.536 31.2839 220.271 31.2285C220.013 31.167 219.757 31.0993 219.505 31.0255C219.253 30.9455 219.025 30.844 218.822 30.7209C218.625 30.5917 218.465 30.4287 218.342 30.2318C218.225 30.0288 218.167 29.7765 218.167 29.475C218.167 29.1428 218.235 28.8567 218.37 28.6167C218.505 28.3706 218.684 28.1707 218.905 28.0169C219.133 27.8569 219.388 27.74 219.671 27.6662C219.96 27.5862 220.256 27.5462 220.557 27.5462C220.896 27.5462 221.209 27.5862 221.499 27.6662C221.788 27.7461 222.04 27.8723 222.255 28.0445C222.477 28.2168 222.649 28.4352 222.772 28.6998C222.901 28.9582 222.972 29.2689 222.984 29.6319H222.154ZM225.111 33.5542H226.569C226.668 33.5542 226.791 33.548 226.938 33.5357C227.086 33.5173 227.243 33.4803 227.409 33.425C227.575 33.3634 227.738 33.2773 227.898 33.1666C228.064 33.0558 228.212 32.9051 228.341 32.7143C228.47 32.5236 228.575 32.2867 228.655 32.0037C228.741 31.7146 228.784 31.3669 228.784 30.9609C228.784 30.5671 228.744 30.2164 228.664 29.9088C228.59 29.595 228.464 29.3304 228.286 29.1151C228.114 28.8936 227.889 28.7275 227.612 28.6167C227.335 28.4998 226.994 28.4414 226.588 28.4414H225.111V33.5542ZM224.234 27.7031H226.495C227.511 27.7031 228.292 27.9615 228.84 28.4783C229.387 28.9951 229.661 29.7826 229.661 30.8409C229.661 31.3946 229.599 31.8868 229.476 32.3175C229.353 32.742 229.163 33.102 228.904 33.3973C228.646 33.6865 228.317 33.9079 227.917 34.0618C227.517 34.2156 227.043 34.2925 226.495 34.2925H224.234V27.7031ZM235.273 29.6873C235.175 29.2197 234.956 28.869 234.618 28.6352C234.286 28.4014 233.889 28.2845 233.427 28.2845C233.033 28.2845 232.695 28.3583 232.412 28.506C232.135 28.6537 231.904 28.8536 231.72 29.1059C231.541 29.352 231.409 29.635 231.323 29.9549C231.237 30.2749 231.194 30.6071 231.194 30.9516C231.194 31.3269 231.237 31.6838 231.323 32.0222C231.409 32.3544 231.541 32.6467 231.72 32.8989C231.904 33.145 232.138 33.3419 232.421 33.4896C232.704 33.6372 233.043 33.7111 233.436 33.7111C233.726 33.7111 233.981 33.6649 234.202 33.5726C234.43 33.4742 234.624 33.3419 234.784 33.1758C234.95 33.0035 235.079 32.8005 235.172 32.5667C235.264 32.3329 235.319 32.0806 235.338 31.8099H236.214C236.128 32.6405 235.842 33.2865 235.356 33.748C234.87 34.2094 234.206 34.4401 233.363 34.4401C232.852 34.4401 232.406 34.354 232.024 34.1817C231.643 34.0033 231.326 33.7603 231.074 33.4527C230.822 33.145 230.631 32.782 230.502 32.3637C230.379 31.9453 230.317 31.4961 230.317 31.0162C230.317 30.5363 230.385 30.0872 230.52 29.6688C230.656 29.2443 230.852 28.8751 231.111 28.5614C231.375 28.2476 231.701 28.0015 232.089 27.8231C232.483 27.6385 232.932 27.5462 233.436 27.5462C233.781 27.5462 234.107 27.5923 234.415 27.6846C234.722 27.7769 234.996 27.9123 235.236 28.0907C235.476 28.2691 235.676 28.4937 235.836 28.7644C235.996 29.029 236.101 29.3366 236.15 29.6873H235.273Z" fill="#212121"/>
<rect x="169.579" y="39.3687" width="63.7429" height="21.2476" rx="10.6238" fill="#E6EAFD"/>
<path d="M180.321 47.6991H177.428L177.043 49.7631L177.063 49.7834C177.218 49.608 177.417 49.4798 177.66 49.3989C177.91 49.3112 178.156 49.2674 178.399 49.2674C178.716 49.2674 179.016 49.3179 179.299 49.4191C179.583 49.5203 179.829 49.6754 180.038 49.8846C180.247 50.0869 180.412 50.3432 180.534 50.6535C180.655 50.9571 180.716 51.3146 180.716 51.726C180.716 52.0296 180.662 52.3263 180.554 52.6164C180.453 52.8997 180.298 53.1526 180.089 53.3752C179.88 53.5978 179.616 53.7766 179.299 53.9115C178.989 54.0396 178.625 54.1037 178.207 54.1037C177.896 54.1037 177.603 54.0599 177.326 53.9722C177.057 53.8778 176.817 53.7462 176.608 53.5776C176.399 53.4022 176.234 53.1864 176.112 52.93C175.991 52.6737 175.927 52.3837 175.92 52.0599H176.78C176.794 52.242 176.837 52.414 176.912 52.5759C176.993 52.7311 177.097 52.8693 177.225 52.9908C177.36 53.1054 177.515 53.1965 177.691 53.2639C177.873 53.3246 178.072 53.355 178.288 53.355C178.49 53.355 178.682 53.3213 178.864 53.2538C179.053 53.1796 179.215 53.0717 179.35 52.93C179.492 52.7884 179.603 52.613 179.684 52.4039C179.765 52.1881 179.805 51.9385 179.805 51.6552C179.805 51.4191 179.765 51.2033 179.684 51.0076C179.61 50.8053 179.502 50.6333 179.36 50.4916C179.218 50.3432 179.046 50.2286 178.844 50.1476C178.648 50.0667 178.429 50.0262 178.186 50.0262C177.903 50.0262 177.65 50.0903 177.428 50.2184C177.212 50.3399 177.02 50.5017 176.851 50.7041L176.112 50.6636L176.78 46.9402H180.321V47.6991ZM182.422 50.4613C182.422 50.7311 182.429 51.0346 182.443 51.3719C182.463 51.7024 182.517 52.0161 182.605 52.3129C182.699 52.6029 182.847 52.8491 183.05 53.0515C183.252 53.2538 183.535 53.355 183.9 53.355C184.264 53.355 184.547 53.2538 184.75 53.0515C184.952 52.8491 185.097 52.6029 185.185 52.3129C185.279 52.0161 185.333 51.7024 185.347 51.3719C185.367 51.0346 185.377 50.7311 185.377 50.4613C185.377 50.2859 185.374 50.0937 185.367 49.8846C185.367 49.6687 185.35 49.4562 185.316 49.2471C185.289 49.0313 185.245 48.8222 185.185 48.6198C185.131 48.4175 185.046 48.2421 184.932 48.0937C184.824 47.9385 184.685 47.8138 184.517 47.7193C184.348 47.6249 184.142 47.5777 183.9 47.5777C183.657 47.5777 183.451 47.6249 183.282 47.7193C183.114 47.8138 182.972 47.9385 182.858 48.0937C182.75 48.2421 182.665 48.4175 182.605 48.6198C182.551 48.8222 182.507 49.0313 182.473 49.2471C182.446 49.4562 182.429 49.6687 182.422 49.8846C182.422 50.0937 182.422 50.2859 182.422 50.4613ZM181.512 50.4714C181.512 50.2083 181.519 49.9351 181.532 49.6518C181.546 49.3685 181.579 49.092 181.633 48.8222C181.687 48.5524 181.765 48.296 181.866 48.0532C181.967 47.8104 182.105 47.5979 182.281 47.4158C182.456 47.2337 182.675 47.0886 182.938 46.9807C183.208 46.8728 183.529 46.8188 183.9 46.8188C184.271 46.8188 184.588 46.8728 184.851 46.9807C185.121 47.0886 185.343 47.2337 185.519 47.4158C185.694 47.5979 185.832 47.8104 185.933 48.0532C186.035 48.296 186.112 48.5524 186.166 48.8222C186.22 49.092 186.254 49.3685 186.267 49.6518C186.281 49.9351 186.287 50.2083 186.287 50.4714C186.287 50.7345 186.281 51.0076 186.267 51.2909C186.254 51.5742 186.22 51.8508 186.166 52.1206C186.112 52.3904 186.035 52.6467 185.933 52.8896C185.832 53.1257 185.694 53.3348 185.519 53.5169C185.343 53.699 185.124 53.844 184.861 53.952C184.598 54.0531 184.277 54.1037 183.9 54.1037C183.529 54.1037 183.208 54.0531 182.938 53.952C182.675 53.844 182.456 53.699 182.281 53.5169C182.105 53.3348 181.967 53.1257 181.866 52.8896C181.765 52.6467 181.687 52.3904 181.633 52.1206C181.579 51.8508 181.546 51.5742 181.532 51.2909C181.519 51.0076 181.512 50.7345 181.512 50.4714ZM188.298 48.8525C188.298 49.0009 188.304 49.1628 188.318 49.3382C188.338 49.5068 188.379 49.6653 188.439 49.8137C188.5 49.9554 188.584 50.0768 188.692 50.178C188.807 50.2724 188.959 50.3196 189.147 50.3196C189.343 50.3196 189.498 50.2724 189.613 50.178C189.728 50.0835 189.815 49.9655 189.876 49.8238C189.943 49.6754 189.987 49.5136 190.007 49.3382C190.028 49.1628 190.038 48.9975 190.038 48.8424C190.038 48.694 190.028 48.5355 190.007 48.3669C189.994 48.1915 189.957 48.033 189.896 47.8913C189.835 47.7429 189.748 47.6215 189.633 47.5271C189.525 47.4259 189.373 47.3753 189.178 47.3753C188.989 47.3753 188.837 47.4259 188.723 47.5271C188.608 47.6215 188.517 47.7429 188.449 47.8913C188.389 48.033 188.348 48.1915 188.328 48.3669C188.308 48.5355 188.298 48.6974 188.298 48.8525ZM187.539 48.8728C187.539 48.5962 187.566 48.3365 187.62 48.0937C187.674 47.8441 187.765 47.6249 187.893 47.436C188.021 47.2471 188.19 47.0988 188.399 46.9908C188.608 46.8762 188.868 46.8188 189.178 46.8188C189.495 46.8188 189.755 46.8728 189.957 46.9807C190.166 47.0886 190.331 47.2337 190.453 47.4158C190.581 47.5979 190.669 47.8138 190.716 48.0633C190.77 48.3062 190.797 48.5659 190.797 48.8424C190.797 49.1055 190.766 49.3618 190.706 49.6114C190.652 49.8542 190.557 50.07 190.422 50.2589C190.294 50.441 190.129 50.5894 189.927 50.7041C189.724 50.8188 189.475 50.8761 189.178 50.8761C188.874 50.8761 188.618 50.8255 188.409 50.7243C188.2 50.6164 188.031 50.4714 187.903 50.2893C187.775 50.1071 187.68 49.8947 187.62 49.6518C187.566 49.409 187.539 49.1493 187.539 48.8728ZM193.296 52.0903C193.296 52.2387 193.303 52.4005 193.316 52.5759C193.336 52.7446 193.377 52.9031 193.437 53.0515C193.498 53.1931 193.582 53.3145 193.69 53.4157C193.805 53.5101 193.957 53.5574 194.146 53.5574C194.341 53.5574 194.496 53.5101 194.611 53.4157C194.726 53.3213 194.814 53.2032 194.874 53.0616C194.942 52.9132 194.986 52.7513 195.006 52.5759C195.026 52.4005 195.036 52.2353 195.036 52.0801C195.036 51.9317 195.026 51.7732 195.006 51.6046C194.992 51.4292 194.955 51.2707 194.894 51.1291C194.834 50.9807 194.746 50.8592 194.631 50.7648C194.523 50.6636 194.372 50.613 194.176 50.613C193.987 50.613 193.835 50.6636 193.721 50.7648C193.606 50.8592 193.515 50.9807 193.448 51.1291C193.387 51.2707 193.346 51.4292 193.326 51.6046C193.306 51.7732 193.296 51.9351 193.296 52.0903ZM192.537 52.1105C192.537 51.8339 192.564 51.5742 192.618 51.3314C192.672 51.0818 192.763 50.8626 192.891 50.6738C193.019 50.4849 193.188 50.3365 193.397 50.2286C193.606 50.1139 193.866 50.0566 194.176 50.0566C194.493 50.0566 194.753 50.1105 194.955 50.2184C195.164 50.3264 195.33 50.4714 195.451 50.6535C195.579 50.8356 195.667 51.0515 195.714 51.3011C195.768 51.5439 195.795 51.8036 195.795 52.0801C195.795 52.3432 195.765 52.5995 195.704 52.8491C195.65 53.0919 195.555 53.3078 195.421 53.4967C195.292 53.6788 195.127 53.8272 194.925 53.9418C194.722 54.0498 194.473 54.1037 194.176 54.1037C193.873 54.1037 193.616 54.0531 193.407 53.952C193.198 53.844 193.029 53.7024 192.901 53.527C192.773 53.3449 192.679 53.1324 192.618 52.8896C192.564 52.6467 192.537 52.3871 192.537 52.1105ZM193.953 46.6873H194.814L189.38 54.2049H188.51L193.953 46.6873ZM201.09 53.183H202.688C202.796 53.183 202.931 53.1763 203.093 53.1628C203.255 53.1425 203.427 53.1021 203.609 53.0413C203.791 52.9739 203.97 52.8795 204.145 52.758C204.328 52.6366 204.489 52.4714 204.631 52.2623C204.773 52.0532 204.887 51.7935 204.975 51.4832C205.07 51.1662 205.117 50.785 205.117 50.3399C205.117 49.9082 205.073 49.5237 204.985 49.1864C204.904 48.8424 204.766 48.5524 204.57 48.3163C204.382 48.0734 204.135 47.8913 203.832 47.7699C203.528 47.6417 203.154 47.5777 202.709 47.5777H201.09V53.183ZM200.129 46.7682H202.608C203.721 46.7682 204.577 47.0515 205.178 47.6181C205.778 48.1847 206.078 49.0481 206.078 50.2083C206.078 50.8154 206.011 51.355 205.876 51.8272C205.741 52.2926 205.532 52.6872 205.248 53.011C204.965 53.328 204.604 53.5709 204.166 53.7395C203.727 53.9081 203.208 53.9924 202.608 53.9924H200.129V46.7682ZM207.708 50.3803C207.708 50.7446 207.755 51.1054 207.85 51.4629C207.944 51.8137 208.092 52.1307 208.295 52.414C208.497 52.6973 208.757 52.9267 209.074 53.1021C209.391 53.2707 209.769 53.355 210.207 53.355C210.646 53.355 211.023 53.2707 211.34 53.1021C211.657 52.9267 211.917 52.6973 212.119 52.414C212.322 52.1307 212.47 51.8137 212.565 51.4629C212.659 51.1054 212.706 50.7446 212.706 50.3803C212.706 50.0161 212.659 49.6586 212.565 49.3078C212.47 48.9503 212.322 48.6299 212.119 48.3466C211.917 48.0633 211.657 47.8374 211.34 47.6687C211.023 47.4933 210.646 47.4057 210.207 47.4057C209.769 47.4057 209.391 47.4933 209.074 47.6687C208.757 47.8374 208.497 48.0633 208.295 48.3466C208.092 48.6299 207.944 48.9503 207.85 49.3078C207.755 49.6586 207.708 50.0161 207.708 50.3803ZM206.747 50.3803C206.747 49.8879 206.818 49.4158 206.959 48.9638C207.108 48.5051 207.327 48.1004 207.617 47.7497C207.907 47.3989 208.268 47.119 208.7 46.9099C209.131 46.7008 209.634 46.5962 210.207 46.5962C210.78 46.5962 211.283 46.7008 211.715 46.9099C212.146 47.119 212.507 47.3989 212.797 47.7497C213.087 48.1004 213.303 48.5051 213.445 48.9638C213.593 49.4158 213.667 49.8879 213.667 50.3803C213.667 50.8727 213.593 51.3483 213.445 51.807C213.303 52.2589 213.087 52.6602 212.797 53.011C212.507 53.3617 212.146 53.6417 211.715 53.8508C211.283 54.0531 210.78 54.1543 210.207 54.1543C209.634 54.1543 209.131 54.0531 208.7 53.8508C208.268 53.6417 207.907 53.3617 207.617 53.011C207.327 52.6602 207.108 52.2589 206.959 51.807C206.818 51.3483 206.747 50.8727 206.747 50.3803ZM214.727 46.7682H215.749L219.554 52.6265H219.574V46.7682H220.485V53.9924H219.432L215.658 48.1949H215.638V53.9924H214.727V46.7682ZM221.938 46.7682H226.926V47.5777H222.9V49.8744H226.653V50.6839H222.9V53.183H226.957V53.9924H221.938V46.7682Z" fill="#02198C"/>
<path d="M142.539 149.663H144.48L151.71 160.796H151.748V149.663H153.479V163.391H151.479L144.307 152.374H144.269V163.391H142.539V149.663ZM156.241 149.663H165.72V151.202H158.068V155.566H165.201V157.104H158.068V161.853H165.778V163.391H156.241V149.663ZM180.204 163.391H178.3L175.167 151.855H175.128L171.956 163.391H170.052L166.534 149.663H168.399L171.09 161.084H171.129L174.205 149.663H176.186L179.223 161.084H179.262L182.05 149.663H183.876L180.204 163.391ZM190.569 149.663H192.396V161.853H199.663V163.391H190.569V149.663ZM203.425 157.719H208.078L205.79 151.317H205.752L203.425 157.719ZM204.79 149.663H206.809L212.174 163.391H210.155L208.655 159.258H202.849L201.31 163.391H199.445L204.79 149.663ZM215.162 156.239H218.738C219.777 156.252 220.533 156.04 221.007 155.605C221.494 155.169 221.738 154.541 221.738 153.72C221.738 152.9 221.494 152.278 221.007 151.855C220.533 151.419 219.777 151.202 218.738 151.202H215.162V156.239ZM213.336 149.663H219.354C220.738 149.663 221.783 150.022 222.487 150.74C223.205 151.445 223.564 152.439 223.564 153.72C223.564 155.002 223.205 156.002 222.487 156.72C221.783 157.437 220.738 157.79 219.354 157.777H215.162V163.391H213.336V149.663ZM228.725 151.202H224.149V149.663H235.128V151.202H230.552V163.391H228.725V151.202ZM237.516 156.527C237.516 157.22 237.606 157.905 237.785 158.585C237.965 159.251 238.247 159.854 238.631 160.392C239.016 160.93 239.509 161.366 240.112 161.699C240.714 162.02 241.432 162.18 242.265 162.18C243.098 162.18 243.816 162.02 244.419 161.699C245.021 161.366 245.515 160.93 245.899 160.392C246.284 159.854 246.566 159.251 246.745 158.585C246.925 157.905 247.014 157.22 247.014 156.527C247.014 155.835 246.925 155.156 246.745 154.489C246.566 153.81 246.284 153.201 245.899 152.663C245.515 152.124 245.021 151.695 244.419 151.375C243.816 151.041 243.098 150.875 242.265 150.875C241.432 150.875 240.714 151.041 240.112 151.375C239.509 151.695 239.016 152.124 238.631 152.663C238.247 153.201 237.965 153.81 237.785 154.489C237.606 155.156 237.516 155.835 237.516 156.527ZM235.69 156.527C235.69 155.592 235.824 154.694 236.093 153.836C236.375 152.964 236.792 152.195 237.343 151.528C237.894 150.862 238.58 150.33 239.4 149.933C240.221 149.535 241.176 149.337 242.265 149.337C243.355 149.337 244.31 149.535 245.13 149.933C245.95 150.33 246.636 150.862 247.187 151.528C247.738 152.195 248.149 152.964 248.418 153.836C248.7 154.694 248.841 155.592 248.841 156.527C248.841 157.463 248.7 158.367 248.418 159.238C248.149 160.097 247.738 160.86 247.187 161.526C246.636 162.193 245.95 162.725 245.13 163.122C244.31 163.507 243.355 163.699 242.265 163.699C241.176 163.699 240.221 163.507 239.4 163.122C238.58 162.725 237.894 162.193 237.343 161.526C236.792 160.86 236.375 160.097 236.093 159.238C235.824 158.367 235.69 157.463 235.69 156.527ZM252.701 156.239H256.277C257.315 156.252 258.072 156.04 258.546 155.605C259.033 155.169 259.276 154.541 259.276 153.72C259.276 152.9 259.033 152.278 258.546 151.855C258.072 151.419 257.315 151.202 256.277 151.202H252.701V156.239ZM250.874 149.663H256.892C258.277 149.663 259.321 150.022 260.026 150.74C260.744 151.445 261.103 152.439 261.103 153.72C261.103 155.002 260.744 156.002 260.026 156.72C259.321 157.437 258.277 157.79 256.892 157.777H252.701V163.391H250.874V149.663Z" fill="#101417"/>
<path d="M128.061 183.261C127.803 183.605 127.483 183.854 127.101 184.008C126.72 184.156 126.335 184.23 125.948 184.23C125.455 184.23 125.016 184.14 124.628 183.962C124.24 183.777 123.911 183.531 123.64 183.224C123.37 182.916 123.164 182.562 123.022 182.162C122.881 181.763 122.81 181.347 122.81 180.917C122.81 180.437 122.874 179.981 123.004 179.551C123.139 179.114 123.336 178.732 123.594 178.406C123.859 178.08 124.185 177.822 124.573 177.631C124.966 177.434 125.425 177.336 125.948 177.336C126.305 177.336 126.64 177.379 126.954 177.465C127.274 177.545 127.557 177.674 127.803 177.853C128.055 178.031 128.264 178.259 128.43 178.535C128.603 178.806 128.719 179.135 128.781 179.523H127.904C127.861 179.271 127.781 179.055 127.664 178.877C127.547 178.692 127.403 178.542 127.23 178.425C127.058 178.308 126.861 178.222 126.64 178.166C126.425 178.105 126.194 178.074 125.948 178.074C125.548 178.074 125.203 178.154 124.914 178.314C124.631 178.474 124.397 178.686 124.213 178.951C124.034 179.209 123.902 179.508 123.816 179.846C123.73 180.178 123.687 180.52 123.687 180.87C123.687 181.215 123.736 181.547 123.834 181.867C123.933 182.181 124.077 182.461 124.268 182.707C124.459 182.947 124.693 183.141 124.969 183.288C125.252 183.43 125.579 183.501 125.948 183.501C126.292 183.501 126.597 183.445 126.861 183.334C127.126 183.224 127.347 183.073 127.526 182.882C127.71 182.685 127.849 182.458 127.941 182.199C128.033 181.935 128.073 181.652 128.061 181.35H125.957V180.612H128.846V184.082H128.292L128.061 183.261ZM130.551 180.787C130.551 181.12 130.594 181.449 130.68 181.775C130.766 182.095 130.902 182.384 131.086 182.642C131.271 182.901 131.508 183.11 131.797 183.27C132.086 183.424 132.431 183.501 132.83 183.501C133.23 183.501 133.575 183.424 133.864 183.27C134.153 183.11 134.39 182.901 134.575 182.642C134.759 182.384 134.895 182.095 134.981 181.775C135.067 181.449 135.11 181.12 135.11 180.787C135.11 180.455 135.067 180.129 134.981 179.809C134.895 179.483 134.759 179.191 134.575 178.932C134.39 178.674 134.153 178.468 133.864 178.314C133.575 178.154 133.23 178.074 132.83 178.074C132.431 178.074 132.086 178.154 131.797 178.314C131.508 178.468 131.271 178.674 131.086 178.932C130.902 179.191 130.766 179.483 130.68 179.809C130.594 180.129 130.551 180.455 130.551 180.787ZM129.674 180.787C129.674 180.338 129.739 179.908 129.868 179.495C130.003 179.077 130.203 178.708 130.468 178.388C130.732 178.068 131.062 177.813 131.455 177.622C131.849 177.431 132.307 177.336 132.83 177.336C133.353 177.336 133.812 177.431 134.206 177.622C134.599 177.813 134.928 178.068 135.193 178.388C135.458 178.708 135.654 179.077 135.784 179.495C135.919 179.908 135.987 180.338 135.987 180.787C135.987 181.236 135.919 181.67 135.784 182.089C135.654 182.501 135.458 182.867 135.193 183.187C134.928 183.507 134.599 183.762 134.206 183.953C133.812 184.137 133.353 184.23 132.83 184.23C132.307 184.23 131.849 184.137 131.455 183.953C131.062 183.762 130.732 183.507 130.468 183.187C130.203 182.867 130.003 182.501 129.868 182.089C129.739 181.67 129.674 181.236 129.674 180.787ZM138.098 181.36H140.331L139.233 178.286H139.215L138.098 181.36ZM138.753 177.493H139.722L142.297 184.082H141.328L140.608 182.098H137.821L137.083 184.082H136.188L138.753 177.493ZM142.855 177.493H143.732V183.344H147.22V184.082H142.855V177.493ZM148.961 180.335H147.937V179.311H148.961V180.335ZM147.937 183.058H148.961V184.082H147.937V183.058ZM156.461 178.342H153.822L153.471 180.224L153.489 180.243C153.631 180.083 153.812 179.966 154.034 179.892C154.261 179.812 154.486 179.772 154.708 179.772C154.997 179.772 155.27 179.818 155.529 179.911C155.787 180.003 156.012 180.144 156.203 180.335C156.393 180.52 156.544 180.753 156.655 181.037C156.766 181.313 156.821 181.639 156.821 182.015C156.821 182.292 156.772 182.562 156.673 182.827C156.581 183.085 156.439 183.316 156.249 183.519C156.058 183.722 155.818 183.885 155.529 184.008C155.246 184.125 154.914 184.184 154.532 184.184C154.249 184.184 153.982 184.144 153.729 184.064C153.483 183.977 153.265 183.857 153.074 183.704C152.883 183.544 152.733 183.347 152.622 183.113C152.511 182.879 152.453 182.615 152.446 182.319H153.231C153.243 182.485 153.283 182.642 153.351 182.79C153.425 182.932 153.52 183.058 153.637 183.168C153.76 183.273 153.902 183.356 154.061 183.418C154.228 183.473 154.409 183.501 154.606 183.501C154.791 183.501 154.966 183.47 155.132 183.408C155.304 183.341 155.452 183.242 155.575 183.113C155.704 182.984 155.806 182.824 155.88 182.633C155.953 182.436 155.99 182.209 155.99 181.95C155.99 181.735 155.953 181.538 155.88 181.36C155.812 181.175 155.713 181.018 155.584 180.889C155.455 180.753 155.298 180.649 155.114 180.575C154.935 180.501 154.735 180.464 154.514 180.464C154.255 180.464 154.025 180.523 153.822 180.64C153.625 180.75 153.449 180.898 153.296 181.083L152.622 181.046L153.231 177.65H156.461V178.342ZM158.377 180.861C158.377 181.107 158.384 181.384 158.396 181.692C158.414 181.993 158.464 182.279 158.544 182.55C158.63 182.815 158.765 183.039 158.95 183.224C159.134 183.408 159.393 183.501 159.725 183.501C160.057 183.501 160.316 183.408 160.5 183.224C160.685 183.039 160.817 182.815 160.897 182.55C160.983 182.279 161.032 181.993 161.045 181.692C161.063 181.384 161.072 181.107 161.072 180.861C161.072 180.701 161.069 180.526 161.063 180.335C161.063 180.138 161.048 179.944 161.017 179.754C160.992 179.557 160.952 179.366 160.897 179.182C160.848 178.997 160.771 178.837 160.666 178.702C160.568 178.56 160.442 178.446 160.288 178.36C160.134 178.274 159.946 178.231 159.725 178.231C159.503 178.231 159.316 178.274 159.162 178.36C159.008 178.446 158.879 178.56 158.774 178.702C158.676 178.837 158.599 178.997 158.544 179.182C158.494 179.366 158.454 179.557 158.424 179.754C158.399 179.944 158.384 180.138 158.377 180.335C158.377 180.526 158.377 180.701 158.377 180.861ZM157.547 180.87C157.547 180.63 157.553 180.381 157.565 180.123C157.578 179.864 157.608 179.612 157.658 179.366C157.707 179.12 157.778 178.886 157.87 178.665C157.962 178.443 158.088 178.249 158.248 178.083C158.408 177.917 158.608 177.785 158.848 177.686C159.094 177.588 159.387 177.539 159.725 177.539C160.063 177.539 160.352 177.588 160.592 177.686C160.839 177.785 161.042 177.917 161.202 178.083C161.361 178.249 161.488 178.443 161.58 178.665C161.672 178.886 161.743 179.12 161.792 179.366C161.841 179.612 161.872 179.864 161.884 180.123C161.897 180.381 161.903 180.63 161.903 180.87C161.903 181.11 161.897 181.36 161.884 181.618C161.872 181.876 161.841 182.129 161.792 182.375C161.743 182.621 161.672 182.855 161.58 183.076C161.488 183.291 161.361 183.482 161.202 183.648C161.042 183.814 160.842 183.947 160.602 184.045C160.362 184.137 160.069 184.184 159.725 184.184C159.387 184.184 159.094 184.137 158.848 184.045C158.608 183.947 158.408 183.814 158.248 183.648C158.088 183.482 157.962 183.291 157.87 183.076C157.778 182.855 157.707 182.621 157.658 182.375C157.608 182.129 157.578 181.876 157.565 181.618C157.553 181.36 157.547 181.11 157.547 180.87ZM163.413 180.861C163.413 181.107 163.42 181.384 163.432 181.692C163.45 181.993 163.499 182.279 163.579 182.55C163.666 182.815 163.801 183.039 163.986 183.224C164.17 183.408 164.429 183.501 164.761 183.501C165.093 183.501 165.351 183.408 165.536 183.224C165.721 183.039 165.853 182.815 165.933 182.55C166.019 182.279 166.068 181.993 166.08 181.692C166.099 181.384 166.108 181.107 166.108 180.861C166.108 180.701 166.105 180.526 166.099 180.335C166.099 180.138 166.084 179.944 166.053 179.754C166.028 179.557 165.988 179.366 165.933 179.182C165.884 178.997 165.807 178.837 165.702 178.702C165.604 178.56 165.478 178.446 165.324 178.36C165.17 178.274 164.982 178.231 164.761 178.231C164.539 178.231 164.352 178.274 164.198 178.36C164.044 178.446 163.915 178.56 163.81 178.702C163.712 178.837 163.635 178.997 163.579 179.182C163.53 179.366 163.49 179.557 163.459 179.754C163.435 179.944 163.42 180.138 163.413 180.335C163.413 180.526 163.413 180.701 163.413 180.861ZM162.583 180.87C162.583 180.63 162.589 180.381 162.601 180.123C162.614 179.864 162.644 179.612 162.694 179.366C162.743 179.12 162.813 178.886 162.906 178.665C162.998 178.443 163.124 178.249 163.284 178.083C163.444 177.917 163.644 177.785 163.884 177.686C164.13 177.588 164.422 177.539 164.761 177.539C165.099 177.539 165.388 177.588 165.628 177.686C165.874 177.785 166.077 177.917 166.237 178.083C166.397 178.249 166.523 178.443 166.616 178.665C166.708 178.886 166.779 179.12 166.828 179.366C166.877 179.612 166.908 179.864 166.92 180.123C166.933 180.381 166.939 180.63 166.939 180.87C166.939 181.11 166.933 181.36 166.92 181.618C166.908 181.876 166.877 182.129 166.828 182.375C166.779 182.621 166.708 182.855 166.616 183.076C166.523 183.291 166.397 183.482 166.237 183.648C166.077 183.814 165.877 183.947 165.638 184.045C165.398 184.137 165.105 184.184 164.761 184.184C164.422 184.184 164.13 184.137 163.884 184.045C163.644 183.947 163.444 183.814 163.284 183.648C163.124 183.482 162.998 183.291 162.906 183.076C162.813 182.855 162.743 182.621 162.694 182.375C162.644 182.129 162.614 181.876 162.601 181.618C162.589 181.36 162.583 181.11 162.583 180.87ZM167.997 183.058H169.021V184.082H167.997V183.058ZM170.925 180.861C170.925 181.107 170.932 181.384 170.944 181.692C170.962 181.993 171.012 182.279 171.092 182.55C171.178 182.815 171.313 183.039 171.498 183.224C171.682 183.408 171.941 183.501 172.273 183.501C172.605 183.501 172.864 183.408 173.048 183.224C173.233 183.039 173.365 182.815 173.445 182.55C173.531 182.279 173.58 181.993 173.593 181.692C173.611 181.384 173.62 181.107 173.62 180.861C173.62 180.701 173.617 180.526 173.611 180.335C173.611 180.138 173.596 179.944 173.565 179.754C173.54 179.557 173.5 179.366 173.445 179.182C173.396 178.997 173.319 178.837 173.214 178.702C173.116 178.56 172.99 178.446 172.836 178.36C172.682 178.274 172.494 178.231 172.273 178.231C172.051 178.231 171.864 178.274 171.71 178.36C171.556 178.446 171.427 178.56 171.322 178.702C171.224 178.837 171.147 178.997 171.092 179.182C171.042 179.366 171.002 179.557 170.972 179.754C170.947 179.944 170.932 180.138 170.925 180.335C170.925 180.526 170.925 180.701 170.925 180.861ZM170.095 180.87C170.095 180.63 170.101 180.381 170.113 180.123C170.126 179.864 170.156 179.612 170.206 179.366C170.255 179.12 170.326 178.886 170.418 178.665C170.51 178.443 170.636 178.249 170.796 178.083C170.956 177.917 171.156 177.785 171.396 177.686C171.642 177.588 171.935 177.539 172.273 177.539C172.611 177.539 172.9 177.588 173.14 177.686C173.387 177.785 173.59 177.917 173.75 178.083C173.909 178.249 174.036 178.443 174.128 178.665C174.22 178.886 174.291 179.12 174.34 179.366C174.389 179.612 174.42 179.864 174.432 180.123C174.445 180.381 174.451 180.63 174.451 180.87C174.451 181.11 174.445 181.36 174.432 181.618C174.42 181.876 174.389 182.129 174.34 182.375C174.291 182.621 174.22 182.855 174.128 183.076C174.036 183.291 173.909 183.482 173.75 183.648C173.59 183.814 173.39 183.947 173.15 184.045C172.91 184.137 172.617 184.184 172.273 184.184C171.935 184.184 171.642 184.137 171.396 184.045C171.156 183.947 170.956 183.814 170.796 183.648C170.636 183.482 170.51 183.291 170.418 183.076C170.326 182.855 170.255 182.621 170.206 182.375C170.156 182.129 170.126 181.876 170.113 181.618C170.101 181.36 170.095 181.11 170.095 180.87ZM175.961 180.861C175.961 181.107 175.967 181.384 175.98 181.692C175.998 181.993 176.047 182.279 176.127 182.55C176.214 182.815 176.349 183.039 176.534 183.224C176.718 183.408 176.977 183.501 177.309 183.501C177.641 183.501 177.899 183.408 178.084 183.224C178.269 183.039 178.401 182.815 178.481 182.55C178.567 182.279 178.616 181.993 178.628 181.692C178.647 181.384 178.656 181.107 178.656 180.861C178.656 180.701 178.653 180.526 178.647 180.335C178.647 180.138 178.632 179.944 178.601 179.754C178.576 179.557 178.536 179.366 178.481 179.182C178.432 178.997 178.355 178.837 178.25 178.702C178.152 178.56 178.026 178.446 177.872 178.36C177.718 178.274 177.53 178.231 177.309 178.231C177.087 178.231 176.9 178.274 176.746 178.36C176.592 178.446 176.463 178.56 176.358 178.702C176.26 178.837 176.183 178.997 176.127 179.182C176.078 179.366 176.038 179.557 176.007 179.754C175.983 179.944 175.967 180.138 175.961 180.335C175.961 180.526 175.961 180.701 175.961 180.861ZM175.131 180.87C175.131 180.63 175.137 180.381 175.149 180.123C175.162 179.864 175.192 179.612 175.241 179.366C175.291 179.12 175.361 178.886 175.454 178.665C175.546 178.443 175.672 178.249 175.832 178.083C175.992 177.917 176.192 177.785 176.432 177.686C176.678 177.588 176.97 177.539 177.309 177.539C177.647 177.539 177.936 177.588 178.176 177.686C178.422 177.785 178.625 177.917 178.785 178.083C178.945 178.249 179.071 178.443 179.164 178.665C179.256 178.886 179.327 179.12 179.376 179.366C179.425 179.612 179.456 179.864 179.468 180.123C179.481 180.381 179.487 180.63 179.487 180.87C179.487 181.11 179.481 181.36 179.468 181.618C179.456 181.876 179.425 182.129 179.376 182.375C179.327 182.621 179.256 182.855 179.164 183.076C179.071 183.291 178.945 183.482 178.785 183.648C178.625 183.814 178.425 183.947 178.185 184.045C177.946 184.137 177.653 184.184 177.309 184.184C176.97 184.184 176.678 184.137 176.432 184.045C176.192 183.947 175.992 183.814 175.832 183.648C175.672 183.482 175.546 183.291 175.454 183.076C175.361 182.855 175.291 182.621 175.241 182.375C175.192 182.129 175.162 181.876 175.149 181.618C175.137 181.36 175.131 181.11 175.131 180.87ZM188.236 181.701C188.236 182.544 188.011 183.178 187.562 183.602C187.113 184.021 186.473 184.23 185.642 184.23C184.793 184.23 184.129 184.03 183.649 183.63C183.175 183.224 182.938 182.581 182.938 181.701V177.493H183.815V181.701C183.815 182.292 183.972 182.741 184.286 183.048C184.599 183.35 185.052 183.501 185.642 183.501C186.202 183.501 186.627 183.35 186.916 183.048C187.211 182.741 187.359 182.292 187.359 181.701V177.493H188.236V181.701ZM193.355 179.421C193.305 178.948 193.133 178.606 192.838 178.397C192.549 178.182 192.176 178.074 191.721 178.074C191.537 178.074 191.355 178.093 191.177 178.129C190.998 178.166 190.838 178.228 190.697 178.314C190.561 178.4 190.451 178.517 190.364 178.665C190.284 178.806 190.245 178.985 190.245 179.2C190.245 179.403 190.303 179.569 190.42 179.698C190.543 179.821 190.703 179.923 190.9 180.003C191.103 180.083 191.33 180.151 191.583 180.206C191.835 180.255 192.09 180.311 192.349 180.372C192.613 180.434 192.872 180.507 193.124 180.594C193.376 180.674 193.601 180.784 193.798 180.926C194.001 181.067 194.161 181.246 194.278 181.461C194.401 181.676 194.462 181.947 194.462 182.273C194.462 182.624 194.382 182.925 194.222 183.178C194.068 183.424 193.868 183.627 193.622 183.787C193.376 183.941 193.099 184.051 192.792 184.119C192.49 184.193 192.189 184.23 191.887 184.23C191.518 184.23 191.167 184.184 190.835 184.091C190.509 183.999 190.22 183.861 189.968 183.676C189.722 183.485 189.525 183.245 189.377 182.956C189.235 182.661 189.165 182.313 189.165 181.913H189.995C189.995 182.19 190.048 182.43 190.152 182.633C190.263 182.83 190.404 182.993 190.577 183.122C190.755 183.251 190.961 183.347 191.195 183.408C191.429 183.47 191.669 183.501 191.915 183.501C192.112 183.501 192.309 183.482 192.506 183.445C192.709 183.408 192.89 183.347 193.05 183.261C193.21 183.168 193.339 183.045 193.438 182.892C193.536 182.738 193.585 182.541 193.585 182.301C193.585 182.073 193.524 181.889 193.401 181.747C193.284 181.606 193.124 181.492 192.921 181.406C192.724 181.313 192.499 181.24 192.247 181.184C191.995 181.129 191.736 181.073 191.472 181.018C191.214 180.957 190.958 180.889 190.706 180.815C190.454 180.735 190.226 180.634 190.023 180.51C189.826 180.381 189.666 180.218 189.543 180.021C189.426 179.818 189.368 179.566 189.368 179.265C189.368 178.932 189.435 178.646 189.571 178.406C189.706 178.16 189.885 177.96 190.106 177.806C190.334 177.646 190.589 177.53 190.872 177.456C191.161 177.376 191.457 177.336 191.758 177.336C192.096 177.336 192.41 177.376 192.699 177.456C192.989 177.536 193.241 177.662 193.456 177.834C193.678 178.006 193.85 178.225 193.973 178.489C194.102 178.748 194.173 179.058 194.185 179.421H193.355ZM196.312 183.344H197.77C197.868 183.344 197.992 183.338 198.139 183.325C198.287 183.307 198.444 183.27 198.61 183.215C198.776 183.153 198.939 183.067 199.099 182.956C199.265 182.845 199.413 182.695 199.542 182.504C199.671 182.313 199.776 182.076 199.856 181.793C199.942 181.504 199.985 181.156 199.985 180.75C199.985 180.357 199.945 180.006 199.865 179.698C199.791 179.385 199.665 179.12 199.487 178.905C199.314 178.683 199.09 178.517 198.813 178.406C198.536 178.289 198.195 178.231 197.789 178.231H196.312V183.344ZM195.435 177.493H197.696C198.711 177.493 199.493 177.751 200.04 178.268C200.588 178.785 200.862 179.572 200.862 180.63C200.862 181.184 200.8 181.676 200.677 182.107C200.554 182.532 200.363 182.892 200.105 183.187C199.847 183.476 199.517 183.697 199.117 183.851C198.718 184.005 198.244 184.082 197.696 184.082H195.435V177.493ZM206.474 179.477C206.375 179.009 206.157 178.659 205.819 178.425C205.486 178.191 205.089 178.074 204.628 178.074C204.234 178.074 203.896 178.148 203.613 178.296C203.336 178.443 203.105 178.643 202.921 178.895C202.742 179.142 202.61 179.425 202.524 179.744C202.438 180.064 202.395 180.397 202.395 180.741C202.395 181.116 202.438 181.473 202.524 181.812C202.61 182.144 202.742 182.436 202.921 182.688C203.105 182.935 203.339 183.131 203.622 183.279C203.905 183.427 204.243 183.501 204.637 183.501C204.926 183.501 205.182 183.454 205.403 183.362C205.631 183.264 205.825 183.131 205.985 182.965C206.151 182.793 206.28 182.59 206.372 182.356C206.465 182.122 206.52 181.87 206.538 181.599H207.415C207.329 182.43 207.043 183.076 206.557 183.538C206.071 183.999 205.406 184.23 204.563 184.23C204.053 184.23 203.607 184.144 203.225 183.971C202.844 183.793 202.527 183.55 202.275 183.242C202.022 182.935 201.832 182.572 201.702 182.153C201.579 181.735 201.518 181.286 201.518 180.806C201.518 180.326 201.586 179.877 201.721 179.458C201.856 179.034 202.053 178.665 202.312 178.351C202.576 178.037 202.902 177.791 203.29 177.613C203.684 177.428 204.133 177.336 204.637 177.336C204.982 177.336 205.308 177.382 205.616 177.474C205.923 177.566 206.197 177.702 206.437 177.88C206.677 178.059 206.877 178.283 207.037 178.554C207.197 178.819 207.301 179.126 207.351 179.477H206.474ZM212.832 180.778C212.832 181.061 212.737 181.298 212.546 181.489C212.362 181.679 212.125 181.775 211.836 181.775C211.547 181.775 211.307 181.679 211.116 181.489C210.931 181.298 210.839 181.061 210.839 180.778C210.839 180.489 210.931 180.252 211.116 180.067C211.307 179.877 211.547 179.781 211.836 179.781C212.125 179.781 212.362 179.877 212.546 180.067C212.737 180.252 212.832 180.489 212.832 180.778ZM217.372 183.344H218.831C218.929 183.344 219.052 183.338 219.2 183.325C219.347 183.307 219.504 183.27 219.67 183.215C219.837 183.153 220 183.067 220.16 182.956C220.326 182.845 220.473 182.695 220.603 182.504C220.732 182.313 220.836 182.076 220.916 181.793C221.002 181.504 221.045 181.156 221.045 180.75C221.045 180.357 221.006 180.006 220.926 179.698C220.852 179.385 220.726 179.12 220.547 178.905C220.375 178.683 220.15 178.517 219.873 178.406C219.597 178.289 219.255 178.231 218.849 178.231H217.372V183.344ZM216.496 177.493H218.757C219.772 177.493 220.553 177.751 221.101 178.268C221.648 178.785 221.922 179.572 221.922 180.63C221.922 181.184 221.861 181.676 221.738 182.107C221.615 182.532 221.424 182.892 221.165 183.187C220.907 183.476 220.578 183.697 220.178 183.851C219.778 184.005 219.304 184.082 218.757 184.082H216.496V177.493ZM228.162 181.701C228.162 182.544 227.937 183.178 227.488 183.602C227.039 184.021 226.399 184.23 225.569 184.23C224.72 184.23 224.055 184.03 223.575 183.63C223.101 183.224 222.865 182.581 222.865 181.701V177.493H223.741V181.701C223.741 182.292 223.898 182.741 224.212 183.048C224.526 183.35 224.978 183.501 225.569 183.501C226.128 183.501 226.553 183.35 226.842 183.048C227.137 182.741 227.285 182.292 227.285 181.701V177.493H228.162V181.701ZM229.469 177.493H234.019V178.231H230.346V180.326H233.77V181.064H230.346V183.344H234.047V184.082H229.469V177.493ZM236.09 180.335H235.065V179.311H236.09V180.335ZM235.065 183.058H236.09V184.082H235.065V183.058ZM240.848 183.344H242.306C242.405 183.344 242.528 183.338 242.676 183.325C242.823 183.307 242.98 183.27 243.146 183.215C243.312 183.153 243.475 183.067 243.635 182.956C243.802 182.845 243.949 182.695 244.078 182.504C244.208 182.313 244.312 182.076 244.392 181.793C244.478 181.504 244.521 181.156 244.521 180.75C244.521 180.357 244.481 180.006 244.401 179.698C244.328 179.385 244.201 179.12 244.023 178.905C243.851 178.683 243.626 178.517 243.349 178.406C243.072 178.289 242.731 178.231 242.325 178.231H240.848V183.344ZM239.972 177.493H242.233C243.248 177.493 244.029 177.751 244.577 178.268C245.124 178.785 245.398 179.572 245.398 180.63C245.398 181.184 245.337 181.676 245.214 182.107C245.09 182.532 244.9 182.892 244.641 183.187C244.383 183.476 244.054 183.697 243.654 183.851C243.254 184.005 242.78 184.082 242.233 184.082H239.972V177.493ZM246.377 177.493H250.927V178.231H247.254V180.326H250.678V181.064H247.254V183.344H250.955V184.082H246.377V177.493ZM256.56 179.477C256.461 179.009 256.243 178.659 255.905 178.425C255.572 178.191 255.175 178.074 254.714 178.074C254.32 178.074 253.982 178.148 253.699 178.296C253.422 178.443 253.191 178.643 253.007 178.895C252.828 179.142 252.696 179.425 252.61 179.744C252.524 180.064 252.481 180.397 252.481 180.741C252.481 181.116 252.524 181.473 252.61 181.812C252.696 182.144 252.828 182.436 253.007 182.688C253.191 182.935 253.425 183.131 253.708 183.279C253.991 183.427 254.329 183.501 254.723 183.501C255.012 183.501 255.268 183.454 255.489 183.362C255.717 183.264 255.911 183.131 256.071 182.965C256.237 182.793 256.366 182.59 256.458 182.356C256.551 182.122 256.606 181.87 256.624 181.599H257.501C257.415 182.43 257.129 183.076 256.643 183.538C256.157 183.999 255.492 184.23 254.649 184.23C254.139 184.23 253.693 184.144 253.311 183.971C252.93 183.793 252.613 183.55 252.361 183.242C252.108 182.935 251.918 182.572 251.788 182.153C251.665 181.735 251.604 181.286 251.604 180.806C251.604 180.326 251.672 179.877 251.807 179.458C251.942 179.034 252.139 178.665 252.398 178.351C252.662 178.037 252.988 177.791 253.376 177.613C253.77 177.428 254.219 177.336 254.723 177.336C255.068 177.336 255.394 177.382 255.701 177.474C256.009 177.566 256.283 177.702 256.523 177.88C256.763 178.059 256.963 178.283 257.123 178.554C257.283 178.819 257.387 179.126 257.437 179.477H256.56ZM260.657 179.855C260.639 179.523 260.673 179.215 260.759 178.932C260.845 178.649 260.977 178.406 261.156 178.203C261.34 177.994 261.568 177.831 261.839 177.714C262.109 177.597 262.417 177.539 262.762 177.539C263.045 177.539 263.309 177.582 263.555 177.668C263.807 177.748 264.026 177.868 264.21 178.028C264.395 178.182 264.54 178.376 264.644 178.609C264.755 178.843 264.81 179.114 264.81 179.421C264.81 179.711 264.764 179.966 264.672 180.187C264.586 180.409 264.469 180.609 264.321 180.787C264.174 180.96 264.004 181.116 263.814 181.258C263.623 181.4 263.426 181.535 263.223 181.664C263.02 181.787 262.817 181.91 262.614 182.033C262.411 182.15 262.223 182.276 262.051 182.412C261.885 182.547 261.74 182.695 261.617 182.855C261.5 183.008 261.423 183.187 261.386 183.39H264.746V184.082H260.473C260.504 183.694 260.571 183.365 260.676 183.095C260.787 182.818 260.925 182.578 261.091 182.375C261.257 182.172 261.445 181.993 261.654 181.839C261.863 181.686 262.082 181.541 262.309 181.406C262.586 181.233 262.829 181.077 263.038 180.935C263.248 180.787 263.42 180.64 263.555 180.492C263.697 180.344 263.801 180.184 263.869 180.012C263.943 179.84 263.98 179.64 263.98 179.412C263.98 179.234 263.946 179.074 263.878 178.932C263.811 178.785 263.718 178.659 263.601 178.554C263.491 178.449 263.358 178.369 263.205 178.314C263.051 178.259 262.888 178.231 262.715 178.231C262.488 178.231 262.291 178.28 262.125 178.379C261.965 178.471 261.833 178.594 261.728 178.748C261.623 178.902 261.546 179.077 261.497 179.274C261.454 179.465 261.436 179.658 261.442 179.855H260.657ZM266.505 180.861C266.505 181.107 266.512 181.384 266.524 181.692C266.542 181.993 266.592 182.279 266.671 182.55C266.758 182.815 266.893 183.039 267.078 183.224C267.262 183.408 267.521 183.501 267.853 183.501C268.185 183.501 268.443 183.408 268.628 183.224C268.813 183.039 268.945 182.815 269.025 182.55C269.111 182.279 269.16 181.993 269.173 181.692C269.191 181.384 269.2 181.107 269.2 180.861C269.2 180.701 269.197 180.526 269.191 180.335C269.191 180.138 269.176 179.944 269.145 179.754C269.12 179.557 269.08 179.366 269.025 179.182C268.976 178.997 268.899 178.837 268.794 178.702C268.696 178.56 268.57 178.446 268.416 178.36C268.262 178.274 268.074 178.231 267.853 178.231C267.631 178.231 267.444 178.274 267.29 178.36C267.136 178.446 267.007 178.56 266.902 178.702C266.804 178.837 266.727 178.997 266.671 179.182C266.622 179.366 266.582 179.557 266.552 179.754C266.527 179.944 266.512 180.138 266.505 180.335C266.505 180.526 266.505 180.701 266.505 180.861ZM265.675 180.87C265.675 180.63 265.681 180.381 265.693 180.123C265.706 179.864 265.736 179.612 265.786 179.366C265.835 179.12 265.906 178.886 265.998 178.665C266.09 178.443 266.216 178.249 266.376 178.083C266.536 177.917 266.736 177.785 266.976 177.686C267.222 177.588 267.514 177.539 267.853 177.539C268.191 177.539 268.48 177.588 268.72 177.686C268.966 177.785 269.169 177.917 269.329 178.083C269.489 178.249 269.616 178.443 269.708 178.665C269.8 178.886 269.871 179.12 269.92 179.366C269.969 179.612 270 179.864 270.012 180.123C270.025 180.381 270.031 180.63 270.031 180.87C270.031 181.11 270.025 181.36 270.012 181.618C270 181.876 269.969 182.129 269.92 182.375C269.871 182.621 269.8 182.855 269.708 183.076C269.616 183.291 269.489 183.482 269.329 183.648C269.169 183.814 268.969 183.947 268.73 184.045C268.49 184.137 268.197 184.184 267.853 184.184C267.514 184.184 267.222 184.137 266.976 184.045C266.736 183.947 266.536 183.814 266.376 183.648C266.216 183.482 266.09 183.291 265.998 183.076C265.906 182.855 265.835 182.621 265.786 182.375C265.736 182.129 265.706 181.876 265.693 181.618C265.681 181.36 265.675 181.11 265.675 180.87ZM270.729 179.855C270.711 179.523 270.744 179.215 270.831 178.932C270.917 178.649 271.049 178.406 271.227 178.203C271.412 177.994 271.64 177.831 271.91 177.714C272.181 177.597 272.489 177.539 272.833 177.539C273.116 177.539 273.381 177.582 273.627 177.668C273.879 177.748 274.098 177.868 274.282 178.028C274.467 178.182 274.611 178.376 274.716 178.609C274.827 178.843 274.882 179.114 274.882 179.421C274.882 179.711 274.836 179.966 274.744 180.187C274.657 180.409 274.541 180.609 274.393 180.787C274.245 180.96 274.076 181.116 273.885 181.258C273.695 181.4 273.498 181.535 273.295 181.664C273.092 181.787 272.889 181.91 272.686 182.033C272.483 182.15 272.295 182.276 272.123 182.412C271.957 182.547 271.812 182.695 271.689 182.855C271.572 183.008 271.495 183.187 271.458 183.39H274.817V184.082H270.544C270.575 183.694 270.643 183.365 270.748 183.095C270.858 182.818 270.997 182.578 271.163 182.375C271.329 182.172 271.517 181.993 271.726 181.839C271.935 181.686 272.153 181.541 272.381 181.406C272.658 181.233 272.901 181.077 273.11 180.935C273.319 180.787 273.492 180.64 273.627 180.492C273.768 180.344 273.873 180.184 273.941 180.012C274.015 179.84 274.051 179.64 274.051 179.412C274.051 179.234 274.018 179.074 273.95 178.932C273.882 178.785 273.79 178.659 273.673 178.554C273.562 178.449 273.43 178.369 273.276 178.314C273.122 178.259 272.959 178.231 272.787 178.231C272.559 178.231 272.363 178.28 272.196 178.379C272.036 178.471 271.904 178.594 271.8 178.748C271.695 178.902 271.618 179.077 271.569 179.274C271.526 179.465 271.507 179.658 271.514 179.855H270.729ZM279.18 179.209C279.143 178.914 279.029 178.677 278.838 178.499C278.647 178.32 278.395 178.231 278.081 178.231C277.749 178.231 277.481 178.314 277.278 178.48C277.075 178.64 276.915 178.846 276.799 179.098C276.688 179.345 276.611 179.612 276.568 179.901C276.525 180.191 276.5 180.461 276.494 180.714L276.512 180.732C276.697 180.43 276.925 180.212 277.195 180.077C277.472 179.941 277.789 179.874 278.146 179.874C278.46 179.874 278.74 179.929 278.986 180.04C279.238 180.144 279.447 180.292 279.613 180.483C279.786 180.674 279.918 180.898 280.01 181.156C280.102 181.415 280.149 181.695 280.149 181.996C280.149 182.236 280.112 182.485 280.038 182.744C279.964 183.002 279.841 183.239 279.669 183.454C279.503 183.664 279.278 183.839 278.995 183.981C278.718 184.116 278.374 184.184 277.961 184.184C277.475 184.184 277.085 184.085 276.789 183.888C276.494 183.691 276.266 183.439 276.106 183.131C275.946 182.824 275.839 182.485 275.783 182.116C275.734 181.747 275.71 181.39 275.71 181.046C275.71 180.597 275.746 180.163 275.82 179.744C275.9 179.32 276.033 178.945 276.217 178.619C276.402 178.292 276.648 178.031 276.955 177.834C277.263 177.637 277.651 177.539 278.118 177.539C278.66 177.539 279.09 177.683 279.41 177.973C279.73 178.256 279.915 178.668 279.964 179.209H279.18ZM277.998 180.566C277.777 180.566 277.583 180.606 277.417 180.686C277.251 180.76 277.109 180.864 276.992 181C276.875 181.129 276.786 181.286 276.725 181.47C276.669 181.649 276.642 181.839 276.642 182.042C276.642 182.245 276.672 182.436 276.734 182.615C276.795 182.793 276.882 182.947 276.992 183.076C277.109 183.205 277.251 183.31 277.417 183.39C277.589 183.464 277.783 183.501 277.998 183.501C278.214 183.501 278.401 183.464 278.561 183.39C278.727 183.31 278.866 183.202 278.977 183.067C279.087 182.932 279.17 182.778 279.226 182.605C279.287 182.427 279.318 182.242 279.318 182.052C279.318 181.849 279.29 181.658 279.235 181.479C279.186 181.295 279.106 181.138 278.995 181.009C278.884 180.873 278.746 180.766 278.58 180.686C278.414 180.606 278.22 180.566 277.998 180.566Z" fill="#5E676E"/>
<rect x="44.5596" y="222.997" width="313.781" height="46.1442" rx="23.0721" fill="#0329E9"/>
</g>
</g>
<defs>
<clipPath id="clip0_212_17957">
<rect width="402.9" height="1148.26" rx="15" fill="white"/>
</clipPath>
<clipPath id="clip1_212_17957">
<rect width="338.391" height="840.594" fill="white" transform="translate(32.2544 -194)"/>
</clipPath>
</defs>
</svg>
